<svg xmlns="http://www.w3.org/2000/svg" width="64" height="64" viewBox="0 0 64 64" role="img" aria-label="SqlGuard mark">
  <defs>
    <linearGradient id="g" x1="10" y1="6" x2="54" y2="58" gradientUnits="userSpaceOnUse">
      <stop stop-color="#58a6ff"/>
      <stop offset="1" stop-color="#2ea043"/>
    </linearGradient>
  </defs>
  <rect x="6" y="6" width="52" height="52" rx="12" fill="#0b0f14" stroke="#30363d" stroke-width="2"/>
  <path d="M22 24c0-5 4-8 10-8 3 0 6 .6 8 1.7l-1.6 5.1c-1.8-.9-3.9-1.4-6.2-1.4-3 0-4.6 1-4.6 2.7 0 1.9 2.2 2.5 5.7 3.4 5.4 1.3 8.5 3.5 8.5 8.1 0 5.4-4.4 8.6-11.4 8.6-3.7 0-7.3-.9-9.7-2.2l1.7-5.2c2.4 1.3 5.3 2.1 8.3 2.1 3.3 0 5.1-1.1 5.1-3 0-1.8-1.6-2.6-5.6-3.6-5.9-1.5-8.6-3.6-8.6-8.3z" fill="url(#g)"/>
</svg>
